<svg xmlns="http://www.w3.org/2000/svg" width="80" height="80" viewBox="0 0 80 80"><defs><style>.a{fill:#fff;}.b,.d{fill:#198cca;}.b,.c{opacity:0.1;}</style></defs><g transform="translate(18.35 21.667)"><circle class="a" cx="6.667" cy="6.667" r="6.667" transform="translate(14.983)"/><path class="a" d="M281.117,256.32l13.35,13.35a28.261,28.261,0,0,1-8.55,9.683l-6.417-6.417-7.5-7.5,4.167-4.167Z" transform="translate(-247.85 -237.937)"/><path class="a" d="M149.09,281.487l6.417,6.417a28.3,28.3,0,0,1-38.067-4.817l16.617-16.633,7.533,7.533Z" transform="translate(-117.44 -246.487)"/></g><path class="b" d="M131.33,102.94a28.131,28.131,0,0,1-3.367,13.4l-13.35-13.35-4.95,4.95-4.167,4.167-7.533-7.533L81.347,121.207A28.333,28.333,0,1,1,131.33,102.94ZM109.663,91.274A6.667,6.667,0,1,0,103,97.94,6.667,6.667,0,0,0,109.663,91.274Z" transform="translate(-62.997 -62.94)"/><g transform="translate(1.667 35)"><path class="a" d="M20.666,229v3.333A1.667,1.667,0,0,1,19,234H12.333a1.667,1.667,0,0,1-1.667-1.667v-6.667A1.667,1.667,0,0,1,12.333,224H19a1.667,1.667,0,0,1,1.667,1.667Z" transform="translate(-10.666 -223.999)"/><path class="a" d="M234,439v6.667a1.667,1.667,0,0,1-1.667,1.667h-6.667A1.667,1.667,0,0,1,224,445.666V439a1.667,1.667,0,0,1,1.667-1.667h6.667A1.667,1.667,0,0,1,234,439Z" transform="translate(-190.666 -404)"/></g><path class="b" d="M447.333,439v6.667a1.667,1.667,0,0,1-1.667,1.667H439a1.667,1.667,0,0,1-1.667-1.667V439A1.667,1.667,0,0,1,439,437.333h6.667A1.667,1.667,0,0,1,447.333,439Z" transform="translate(-369 -369)"/><path class="a" d="M447.333,225.667v6.667A1.667,1.667,0,0,1,445.666,234H439a1.667,1.667,0,0,1-1.667-1.667v-6.667A1.667,1.667,0,0,1,439,224h6.667A1.667,1.667,0,0,1,447.333,225.667Z" transform="translate(-369 -189)"/><path class="b" d="M439,10.667h6.667a1.667,1.667,0,0,1,1.667,1.667V19a1.667,1.667,0,0,1-1.667,1.667H439A1.667,1.667,0,0,1,437.333,19V12.334A1.667,1.667,0,0,1,439,10.667Z" transform="translate(-369 -9)"/><path class="a" d="M234,15.666V19a1.667,1.667,0,0,1-1.667,1.667h-6.667A1.667,1.667,0,0,1,224,19V12.333a1.667,1.667,0,0,1,1.667-1.667h6.667A1.667,1.667,0,0,1,234,12.333v3.333Z" transform="translate(-189 -8.999)"/><g class="c" transform="translate(1.667 1.667)"><path class="d" d="M20.666,439v6.667A1.667,1.667,0,0,1,19,447.333H12.333a1.667,1.667,0,0,1-1.667-1.667V439a1.667,1.667,0,0,1,1.667-1.667H19A1.667,1.667,0,0,1,20.666,439Z" transform="translate(-10.666 -370.666)"/><path class="d" d="M20.666,15.666V19A1.667,1.667,0,0,1,19,20.666H12.333A1.667,1.667,0,0,1,10.666,19V12.333a1.667,1.667,0,0,1,1.667-1.667H19a1.667,1.667,0,0,1,1.667,1.667Z" transform="translate(-10.666 -10.666)"/></g><path class="d" d="M3.333,13.333H5V30H8.333V13.333H10A3.333,3.333,0,0,0,13.333,10V8.333H30V5H13.333V3.333A3.333,3.333,0,0,0,10,0H3.333A3.333,3.333,0,0,0,0,3.333V10A3.333,3.333,0,0,0,3.333,13.333Zm0-10H10V10H3.333Z"/><path class="d" d="M76.667,33.333H75V16.667H71.667V33.333H70a3.354,3.354,0,0,0-.748.092A30.073,30.073,0,0,0,46.575,10.748,3.354,3.354,0,0,0,46.667,10V8.333H63.333V5H46.667V3.333A3.333,3.333,0,0,0,43.333,0H36.667a3.333,3.333,0,0,0-3.333,3.333V10a3.354,3.354,0,0,0,.092.748A30.073,30.073,0,0,0,10.748,33.425,3.354,3.354,0,0,0,10,33.333H3.333A3.333,3.333,0,0,0,0,36.667v6.667a3.333,3.333,0,0,0,3.333,3.333H10a3.35,3.35,0,0,0,.76-.095,29.92,29.92,0,0,0,22.667,22.7,3.309,3.309,0,0,0-.093.732v1.667H16.667V75H33.333v1.667A3.333,3.333,0,0,0,36.667,80h6.667a3.333,3.333,0,0,0,3.333-3.333V70a3.292,3.292,0,0,0-.087-.73,29.417,29.417,0,0,0,10.8-4.833,30.062,30.062,0,0,0,9.053-10.252,29.754,29.754,0,0,0,2.823-7.615,3.312,3.312,0,0,0,.743.1h1.667V63.333H75V46.667h1.667A3.333,3.333,0,0,0,80,43.333V36.667A3.333,3.333,0,0,0,76.667,33.333ZM36.667,10V3.333h6.667V10ZM10,43.333H3.333V36.667H10ZM43.333,70v6.667H36.667V70ZM64.48,50.557,52.795,38.872a1.667,1.667,0,0,0-2.357,0l-4.95,4.95,2.357,2.357,3.772-3.772L62.862,53.65a26.7,26.7,0,0,1-7.418,8.078A26.283,26.283,0,0,1,40,66.667,26.571,26.571,0,0,1,20.667,58.3L34.967,44,48.822,57.853,51.179,55.5,36.147,40.463a1.718,1.718,0,0,0-2.358,0L18.51,55.757a26.667,26.667,0,1,1,45.97-5.192Zm12.187-7.223H70V36.667h6.667Z"/><path class="d" d="M436.667,0H430a3.333,3.333,0,0,0-3.333,3.333V10A3.333,3.333,0,0,0,430,13.333h6.667A3.333,3.333,0,0,0,440,10V3.333A3.333,3.333,0,0,0,436.667,0Zm0,10H430V3.333h6.667Z" transform="translate(-360)"/><path class="d" d="M10,336.667H8.333V320H5v16.667H3.333A3.333,3.333,0,0,0,0,340v6.667A3.333,3.333,0,0,0,3.333,350H10a3.333,3.333,0,0,0,3.333-3.333V340A3.333,3.333,0,0,0,10,336.667Zm0,10H3.333V340H10Z" transform="translate(0 -270)"/><path class="d" d="M346.667,426.667H340A3.333,3.333,0,0,0,336.667,430v1.667H320V435h16.667v1.667A3.333,3.333,0,0,0,340,440h6.667A3.333,3.333,0,0,0,350,436.667V430A3.333,3.333,0,0,0,346.667,426.667Zm0,10H340V430h6.667Z" transform="translate(-270 -360)"/><path class="d" d="M211,128a8.333,8.333,0,1,0,8.333,8.333A8.333,8.333,0,0,0,211,128Zm0,13.333a5,5,0,1,1,5-5A5,5,0,0,1,211,141.333Z" transform="translate(-171 -108)"/></svg>