<svg height="685.203" viewBox="0 0 702 685.203" width="702" xmlns="http://www.w3.org/2000/svg"><circle cx="670.169" cy="586.027" fill="#fdb436" r="31.83"/><path d="m439.975 409.4a134.209 134.209 0 0 0 43.257 98.638l39.46-36.7a80.976 80.976 0 0 1 52.122-143.118 76.32 76.32 0 0 1 13.7 1.38l.507-1.671 11.911-50.358a129.1 129.1 0 0 0 -26.12-3.01 134.836 134.836 0 0 0 -134.837 134.839z" fill="#fdb436" transform="translate(97.294 177.163)"/><circle cx="31.83" cy="586.027" fill="#f1553f" r="31.83"/><path d="m457.882 409.4a134.836 134.836 0 0 0 -134.84-134.837 129.1 129.1 0 0 0 -26.12 3.01l11.911 50.358.507 1.671a76.318 76.318 0 0 1 13.7-1.38 80.976 80.976 0 0 1 52.124 143.118l39.46 36.7a134.209 134.209 0 0 0 43.258-98.64z" fill="#f1553f" transform="translate(-293.15 177.163)"/><path d="m378.327 314.6a288.036 288.036 0 0 0 -35.164 24.584 158.877 158.877 0 0 1 13.031 59.342 229.561 229.561 0 0 1 48.706-38.438c90.945-53.155 204.131-34.512 274.139 38.23a158.88 158.88 0 0 1 13.086-59.278c-86.858-70.433-211.68-84.064-313.798-24.44z" fill="#24b768" transform="translate(-166.941 183.843)"/><circle cx="350.705" cy="31.83" fill="#198cca" r="31.83"/><path d="m520.191 219.651a80.071 80.071 0 0 1 -34.236 7.4q-.683 0-1.365-.011c-.451.007-.91.011-1.361.011a79.791 79.791 0 0 1 -77.974-60.009l-49.981 20.142a133.885 133.885 0 0 0 128.041 93.682c.429 0 .85 0 1.276-.007s.854.007 1.279.007a133.885 133.885 0 0 0 128.04-93.683l-49.985-20.142a80.6 80.6 0 0 1 -43.734 52.61z" fill="#198cca" transform="translate(-133.886 -116.304)"/><g fill="#24b768"><path d="m446.4 269.462a223.457 223.457 0 0 1 11.445-70.541c-3.084 1.708-6.12 3.483-9.327 4.986a157.439 157.439 0 0 1 -49.91 14.022 277.17 277.17 0 0 0 -4.885 51.532c0 116.573 72.6 216.315 174.87 256.943a161.159 161.159 0 0 1 41.139-41.612c-94.088-26.501-163.332-112.892-163.332-215.33z" transform="translate(-28.953 -29.292)"/><path d="m488.58 203.124c-2.517-1.178-4.882-2.61-7.324-3.916a223.721 223.721 0 0 1 11.044 69.471c0 102.621-69.5 189.128-163.839 215.461a161.121 161.121 0 0 1 41.1 41.683c102.558-40.49 175.411-140.366 175.411-257.144a277.294 277.294 0 0 0 -4.867-51.421 157.512 157.512 0 0 1 -51.525-14.134z" transform="translate(-207.063 -28.509)"/></g></svg>