<svg height="80" viewBox="0 0 79.999 80" width="79.999" xmlns="http://www.w3.org/2000/svg"><path d="m219.336 218.338v5h-16.667v-10h16.667z" fill="#f2f2f2" transform="translate(-171.003 -180.004)"/><path d="m140.334 10.669h33.333a1.632 1.632 0 0 1 1.667 1.6q0 .035 0 .071v3.333h-36.667v-3.337a1.632 1.632 0 0 1 1.6-1.667z" fill="#fff" transform="translate(-117 -9.001)"/><path d="m102 250.338v31.662a3.343 3.343 0 0 1 -3.333 3.333h-63.331a3.343 3.343 0 0 1 -3.336-3.333v-36.662h26.669v5h16.667v-5h26.664z" fill="#fff" transform="translate(-27.003 -207.004)"/><path d="m87.335 99.338v16.662a3.343 3.343 0 0 1 -3.335 3.338h-26.665v-5h-16.666v5h-26.669a3.343 3.343 0 0 1 -3.331-3.338v-16.662a3.343 3.343 0 0 1 3.331-3.338h70a3.343 3.343 0 0 1 3.335 3.338z" fill="#198cca" opacity=".1" transform="translate(-9.002 -81.004)"/><circle cx="40" cy="41.667" fill="#fff" r="20"/><path d="m241.336 462.005v3.333h-6.667v-3.333a3.333 3.333 0 0 1 6.667 0z" fill="#87d2f3" transform="translate(-198.003 -387.005)"/><g fill="#198cca"><path d="m75 13.334h-21.665v-5h5a1.667 1.667 0 0 0 1.665-1.667v-3.333a3.265 3.265 0 0 0 -3.194-3.334h-33.471a3.265 3.265 0 0 0 -3.335 3.2v.138 3.329a1.667 1.667 0 0 0 1.667 1.667h5v5h-21.667a5 5 0 0 0 -5 5v16.666a5 5 0 0 0 5 5h8.333v-3.333h-8.333a1.667 1.667 0 0 1 -1.665-1.667v-16.666a1.667 1.667 0 0 1 1.665-1.667h70a1.667 1.667 0 0 1 1.667 1.667v16.666a1.667 1.667 0 0 1 -1.667 1.667h-8.332v3.333h8.332a5 5 0 0 0 5-5v-16.666a5 5 0 0 0 -5-5zm-51.666-10 33.326-.093a.382.382 0 0 1 .008.093v1.666h-33.333zm6.667 5h19.999v5h-20v-5z" transform="translate(-.002)"/><path d="m91.335 182.887a1.667 1.667 0 0 1 -1.667 1.667h-26.668v-1.667a4.99 4.99 0 0 0 -3.333-4.7v-7.055a21.666 21.666 0 1 0 -3.333 0v7.058a5 5 0 0 0 -3.334 4.697v1.667h-26.664a1.667 1.667 0 0 1 -1.667-1.667v-31.667h-3.333v31.666a5 5 0 0 0 5 5h63.333a5 5 0 0 0 5-5v-31.666h-3.334zm-51.666-33.333a18.333 18.333 0 1 1 18.331 18.333 18.333 18.333 0 0 1 -18.331-18.333zm16.667 33.333a1.667 1.667 0 0 1 1.664-1.667 1.628 1.628 0 0 1 1.188.512 1.6 1.6 0 0 1 .478 1.155v1.667h-3.33z" transform="translate(-18.003 -107.887)"/><path d="m221.669 215.34v-3.333h1.667a3.333 3.333 0 0 0 3.333-3.333v-3.334a3.333 3.333 0 0 0 -3.333-3.333h-6.667v-3.333h6.667v1.667h3.333v-1.667a3.333 3.333 0 0 0 -3.333-3.333h-1.667v-3.333h-3.333v3.333h-1.667a3.333 3.333 0 0 0 -3.333 3.333v3.333a3.333 3.333 0 0 0 3.333 3.333h6.667v3.333h-6.667v-1.667h-3.333v1.667a3.333 3.333 0 0 0 3.333 3.333h1.667v3.333z" transform="translate(-180.003 -162.006)"/><path d="m64 426.671v5a1.667 1.667 0 0 0 1.667 1.667h5v-3.338h-3.332v-3.333h-3.335z" transform="translate(-54.002 -360.004)"/></g></svg>