<svg height="80" viewBox="0 0 80.031 80" width="80.031" xmlns="http://www.w3.org/2000/svg"><path d="m91.612 265.042c5 1.666 5 5 5 5l.15.15a24.942 24.942 0 0 1 -33.614 0l.15-.15s0-3.331 5-5a70.039 70.039 0 0 0 8.329-3.331v-2.249a9.979 9.979 0 0 1 -6.663-9.411v-5a9.994 9.994 0 0 1 19.989 0v5a9.979 9.979 0 0 1 -6.663 9.411v2.249a70.042 70.042 0 0 0 8.322 3.331z" fill="#fff" transform="translate(-53.284 -198.368)"/><path d="m395.62 399.876a8.315 8.315 0 1 1 -.849 3.648 8.111 8.111 0 0 1 .849-3.648z" fill="#198cca" opacity=".1" transform="translate(-333.123 -333.518)"/><path d="m334.612 33.813a13.326 13.326 0 1 1 9.428 3.9 13.326 13.326 0 0 1 -9.428-3.9z" fill="#fff" transform="translate(-279.061 -9.348)"/><g fill="#198cca"><path d="m59.438 215.276a25.184 25.184 0 0 1 -6.729 10.061l-.15-.15s0-3.331-5-5a70.042 70.042 0 0 1 -8.329-3.331v-2.246a9.98 9.98 0 0 0 6.67-9.41v-5a9.994 9.994 0 0 0 -19.989 0v5a9.979 9.979 0 0 0 6.663 9.411v2.249a70.055 70.055 0 0 1 -8.329 3.331c-5 1.666-5 5-5 5l-.15.15a24.966 24.966 0 1 1 40.343-10.061z" opacity=".1" transform="translate(-9.234 -153.515)"/><path d="m69.976 60.112a10.063 10.063 0 0 0 -8.2 4.306l-9.518-3.566a26.733 26.733 0 0 0 1.063-7.4 26.371 26.371 0 0 0 -6.694-17.6l8.995-8.995a15.023 15.023 0 1 0 -2.356-2.357l-8.995 8.99a26.377 26.377 0 0 0 -17.6-6.693 26.685 26.685 0 1 0 24.429 37.176l9.256 3.468a9.986 9.986 0 1 0 9.618-7.329zm-5-56.634a11.66 11.66 0 1 1 -11.66 11.66 11.66 11.66 0 0 1 11.663-11.661zm-53.192 67.879c.242-.715 1.046-2.1 3.75-3a71.056 71.056 0 0 0 8.547-3.416 1.666 1.666 0 0 0 .921-1.5v-2.247a1.666 1.666 0 0 0 -1.113-1.571 8.328 8.328 0 0 1 -5.55-7.841v-5a8.329 8.329 0 1 1 16.657 0v5a8.329 8.329 0 0 1 -5.55 7.841 1.666 1.666 0 0 0 -1.113 1.571v2.249a1.666 1.666 0 0 0 .921 1.5 71.054 71.054 0 0 0 8.547 3.42c2.7.9 3.508 2.289 3.75 3a23.17 23.17 0 0 1 -29.766 0zm32.269-2.417a9.21 9.21 0 0 0 -5.2-3.745 74.075 74.075 0 0 1 -7.189-2.81v-.077a11.66 11.66 0 0 0 6.663-10.526v-5a11.66 11.66 0 1 0 -23.32 0v5a11.66 11.66 0 0 0 6.663 10.526v.077a74.129 74.129 0 0 1 -7.189 2.81 9.187 9.187 0 0 0 -5.212 3.768 23.308 23.308 0 1 1 40.719-15.514 22.954 22.954 0 0 1 -5.935 15.491zm25.923 7.829a6.663 6.663 0 0 1 -6.663-6.663 6.461 6.461 0 0 1 .68-2.918 6.663 6.663 0 1 1 5.983 9.581z" transform="translate(0 -.1)"/><path d="m371.1 46.391v-3.332a8.338 8.338 0 0 0 -8.329 8.329h3.329a5 5 0 0 1 5-4.997z" transform="translate(-306.12 -36.351)"/><path d="m437.438 437.726h3.331v3.331h-3.331z" transform="translate(-369.127 -369.386)"/><path d="m266.771 331.059h3.329v3.331h-3.331z" transform="translate(-225.112 -279.376)"/><path d="m42.771 331.059h3.329v3.331h-3.329z" transform="translate(-36.092 -279.376)"/></g></svg>