<svg height="80" viewBox="0 0 80 80" width="80" xmlns="http://www.w3.org/2000/svg"><path d="m87.333 96v56.667a6.667 6.667 0 0 1 -6.667 6.667h-63.333a6.667 6.667 0 0 1 -6.667-6.667v-56.667z" fill="#fff" transform="translate(-8.999 -81)"/><path d="m87.334 17.333v6.667h-76.667v-6.667a6.667 6.667 0 0 1 6.667-6.667h63.333a6.667 6.667 0 0 1 6.667 6.667z" fill="#198cca" opacity=".1" stroke="#707070" stroke-miterlimit="10" transform="translate(-9 -8.999)"/><path d="m212 220v1.667h-20v-1.667a6.667 6.667 0 0 1 6.667-6.667h6.667a6.667 6.667 0 0 1 6.666 6.667z" fill="#fff" transform="translate(-162 -180)"/><g fill="#198cca"><path d="m266 266.667v5a6.667 6.667 0 0 1 -6.667 6.667h-3.333v-11.667z" opacity=".1" stroke="#707070" stroke-miterlimit="10" transform="translate(-216 -225)"/><path d="m202 266.667v11.667h-3.333a6.667 6.667 0 0 1 -6.667-6.667v-5z" opacity=".1" stroke="#707070" stroke-miterlimit="10" transform="translate(-162 -225)"/><path d="m71.667 0h-63.334a8.343 8.343 0 0 0 -8.333 8.333v63.334a8.343 8.343 0 0 0 8.333 8.333h63.334a8.343 8.343 0 0 0 8.333-8.333v-63.334a8.343 8.343 0 0 0 -8.333-8.333zm5 71.667a5 5 0 0 1 -5 5h-63.334a5 5 0 0 1 -5-5v-63.334a5 5 0 0 1 5-5h63.334a5 5 0 0 1 5 5z"/><path d="m42.667 85.333h66.667v3.333h-66.667z" transform="translate(-36 -72)"/><path d="m53.333 42.667h3.333v3.333h-3.333z" transform="translate(-45 -36)"/><path d="m96 42.667h3.333v3.333h-3.333z" transform="translate(-81 -36)"/><path d="m437.333 42.667h3.333v3.333h-3.333z" transform="translate(-369 -36)"/><path d="m172 180.663h-4.04a8.357 8.357 0 0 0 -5.96-4.833v-1.83h3.333v-3.333h-3.333a3.265 3.265 0 0 0 -3.333 3.2v.138 1.667h-3.337v-1.672a3.265 3.265 0 0 0 -3.2-3.333h-3.471v3.333h3.341v1.833a8.357 8.357 0 0 0 -5.96 4.833h-4.04a3.265 3.265 0 0 0 -3.333 3.2v.138 3.333h3.333v-3.337h3.333v6.667h-3.333a3.265 3.265 0 0 0 -3.333 3.2v.138 3.333h3.333v-3.338h4.04a8.333 8.333 0 0 0 7.627 5h6.667a8.334 8.334 0 0 0 7.627-5h4.039v3.333h3.333v-3.333a3.265 3.265 0 0 0 -3.2-3.333h-3.471v-6.667h3.338v3.333h3.333v-3.333a3.265 3.265 0 0 0 -3.2-3.333c-.044-.005-.09-.005-.133-.004zm-23.333 10v-3.333h6.667v8.333h-1.667a5 5 0 0 1 -5.004-5zm16.667 0a5 5 0 0 1 -5 5h-1.667v-8.333h1.667v-3.33h-11.671a5 5 0 0 1 5-5h6.667a5 5 0 0 1 5 5z" transform="translate(-116.996 -143.996)"/><path d="m53.333 140.334v6.666h3.333v-5h5v-3.333h-6.666a1.667 1.667 0 0 0 -1.667 1.667z" transform="translate(-45 -117)"/><path d="m410.333 410.332h-5v3.333h6.667a1.667 1.667 0 0 0 1.666-1.665v-6.667h-3.333v5z" transform="translate(-342 -341.999)"/><path d="m245.333 394.667h3.333v3.333h-3.333z" transform="translate(-207 -333)"/><path d="m298.667 394.667h3.333v3.333h-3.333z" transform="translate(-252 -333)"/><path d="m192 394.667h3.333v3.333h-3.333z" transform="translate(-162 -333)"/></g></svg>